<svg xmlns="http://www.w3.org/2000/svg" width="108" height="127" viewBox="0 0 108 127" fill="none">
<path d="M2.22175 29.2608C11.5397 25.3788 21.82 24.3144 31.7119 26.3366C41.7428 28.3512 51.007 33.6681 57.962 41.0901C64.385 47.9559 70.0109 57.5685 69.0692 67.3456C68.6024 72.0528 66.5846 76.4268 63.1709 79.7348C59.8885 82.8963 55.6037 85.0537 51.1039 85.8295C41.6334 87.4348 32.0986 82.7735 26.2085 75.4605C23.2172 71.7229 20.7127 67.2063 20.6395 62.3057C20.5434 56.9884 24.0428 52.7004 27.8192 49.4005C34.9473 43.1861 44.4578 39.7673 53.9114 39.8906C63.5039 40.0064 72.6148 44.0499 79.4469 50.754C86.1633 57.3809 90.3852 66.2901 90.8175 75.7132C91.2578 84.7737 88.2484 93.9394 82.7633 101.151C81.4654 102.894 79.9361 104.482 78.3451 105.963C76.8855 107.297 74.6492 105.134 76.1629 103.769C82.3258 98.2486 86.3296 90.4497 87.4707 82.278C88.6505 73.7976 86.5969 65.2992 81.7252 58.2648C76.9076 51.1996 69.4569 45.9227 61.1006 43.9557C52.7444 41.9888 43.6523 43.3783 36.1015 47.4701C32.3415 49.543 28.7044 52.3338 26.1318 55.735C24.8106 57.563 23.8366 59.6227 23.7653 61.8838C23.7405 63.9752 24.2713 66.0361 25.1572 67.9662C28.6702 75.6323 36.313 81.874 44.7317 82.9458C52.7569 83.9555 61.4731 79.772 64.7359 72.1808C68.2461 64.0188 64.3025 54.5927 59.4768 47.8902C54.0423 40.2457 46.1369 34.297 37.3262 31.1567C28.6005 28.0396 18.9927 27.646 9.97709 29.923C7.8621 30.4847 5.7239 31.1312 3.70898 31.994C2.94473 32.2866 2.04958 32.2241 1.58719 31.4134C1.27133 30.7341 1.48832 29.6075 2.22175 29.2608Z" fill="#000000"/>
<path d="M84.6096 108.908C82.9349 108.86 81.2295 108.759 79.6321 108.595C78.737 108.533 77.8651 108.386 76.9931 108.238C76.152 108.145 75.3341 107.967 74.6632 107.418C73.0898 106.167 73.8249 103.814 74.0655 102.101C74.3061 100.388 74.6624 98.7518 75.0728 97.0852C75.6068 95.1331 78.5774 95.9459 78.0433 97.8979C77.6718 99.2559 77.3851 100.637 77.1525 101.987C77.0208 102.636 76.9739 103.307 76.8422 103.955C76.8034 104.264 76.7413 104.657 76.7025 104.966C76.6793 105.051 76.6869 105.19 76.6637 105.275C76.6328 105.22 76.602 105.166 76.6252 105.082C76.5636 104.973 76.4787 104.95 76.4171 104.842C76.5328 104.919 76.6176 104.943 76.5328 104.919C77.6517 104.998 79.0329 105.284 80.2675 105.44C81.6951 105.556 83.1227 105.673 84.5736 105.705C86.6185 105.9 86.5928 108.995 84.6096 108.908Z" fill="#000000"/>
</svg>